# xmcd
#
# Track frame offsets: 
#        150
#        16207
#        32345
#        47402
#        64450
#        79725
#        96725
#        110302
#        131840
#        148882
#
# Disc length: 2202 seconds
#
# Revision: 4
# Processed by: cddbd v1.5.2PL0 Copyright (c) Steve Scherf et al.
# Submitted via: ExactAudioCopy v0.99pb5
#
DISCID=8908980a
DTITLE=Tammy Cochran - Tammy Cochran
DYEAR=2001
DGENRE=Country
TTITLE0=I Cry
TTITLE1=If You Can
TTITLE2=So What
TTITLE3=What I Learned From Loving You
TTITLE4=That Ain't Right
TTITLE5=Say Goodbye
TTITLE6=When Love Was Enough
TTITLE7=Going, Going, Gone
TTITLE8=Better Off Broken
TTITLE9=Angels In Waiting
EXTD=YEAR: 2001 ID3G:   2
EXTT0=
EXTT1=
EXTT2=
EXTT3=
EXTT4=
EXTT5=
EXTT6=
EXTT7=
EXTT8=
EXTT9=
PLAYORDER=
